<?xml version="1.0" standalone="no"?>
<!DOCTYPE svg PUBLIC "-//W3C//DTD SVG 20010904//EN"
 "http://www.w3.org/TR/2001/REC-SVG-20010904/DTD/svg10.dtd">
<svg version="1.0" xmlns="http://www.w3.org/2000/svg"
 width="424.000000pt" height="487.000000pt" viewBox="0 0 424.000000 487.000000"
 preserveAspectRatio="xMidYMid meet">

<g transform="translate(0.000000,487.000000) scale(0.100000,-0.100000)"
fill="#000000" stroke="none">
<path d="M1954 4673 c-88 -98 -274 -304 -413 -458 -139 -154 -261 -288 -270
-297 -11 -12 -195 -53 -631 -143 -338 -69 -620 -128 -627 -130 -8 -3 56 -207
189 -607 l201 -602 -198 -596 c-108 -327 -198 -599 -199 -604 -1 -9 86 -28
880 -192 l371 -77 429 -475 428 -474 30 33 c17 19 210 232 429 475 l398 441
197 41 c108 22 389 80 624 129 236 48 428 92 428 97 0 5 -88 274 -195 599
-107 324 -195 594 -195 600 0 6 88 278 196 605 107 327 192 598 187 602 -6 6
-1215 260 -1236 260 -4 0 -810 887 -847 932 -14 17 -25 7 -176 -159z"/>
</g>
</svg>
