<?xml version="1.0" standalone="no"?>
<!DOCTYPE svg PUBLIC "-//W3C//DTD SVG 20010904//EN"
 "http://www.w3.org/TR/2001/REC-SVG-20010904/DTD/svg10.dtd">
<svg version="1.0" xmlns="http://www.w3.org/2000/svg"
 width="496.000000pt" height="503.000000pt" viewBox="0 0 496.000000 503.000000"
 preserveAspectRatio="xMidYMid meet">

<g transform="translate(0.000000,503.000000) scale(0.100000,-0.100000)"
fill="#000000" stroke="none">
<path d="M2478 4982 c-7 -10 -164 -180 -348 -377 l-335 -357 -190 6 c-634 21
-838 27 -842 23 -2 -3 1 -125 7 -273 5 -148 13 -379 16 -514 l7 -245 -64 -60
c-35 -33 -131 -123 -214 -200 -82 -77 -223 -210 -314 -295 l-164 -155 76 -70
c42 -38 211 -196 377 -350 l301 -280 -5 -250 c-4 -137 -11 -368 -16 -513 -6
-145 -8 -267 -5 -272 3 -5 36 -7 73 -5 37 3 252 9 477 15 226 6 424 13 442 16
30 4 45 -10 388 -376 197 -209 358 -380 360 -380 1 0 114 120 251 267 137 148
283 304 325 348 42 44 87 93 101 109 24 28 26 28 124 27 54 -1 218 -6 364 -11
392 -14 559 -15 569 -4 4 5 5 99 0 209 -4 110 -13 337 -20 505 l-12 304 70 66
c302 280 498 464 553 517 36 34 80 75 99 92 18 16 32 34 30 40 -5 13 -331 320
-698 657 l-54 50 12 284 c6 157 14 390 18 519 l6 233 -154 -6 c-85 -3 -317
-11 -516 -17 l-361 -12 -64 68 c-34 37 -191 205 -348 373 -157 168 -290 307
-297 309 -6 2 -17 -4 -25 -15z"/>
</g>
</svg>
