<?xml version="1.0" standalone="no"?>
<!DOCTYPE svg PUBLIC "-//W3C//DTD SVG 20010904//EN"
 "http://www.w3.org/TR/2001/REC-SVG-20010904/DTD/svg10.dtd">
<svg version="1.0" xmlns="http://www.w3.org/2000/svg"
 width="176.000000pt" height="134.000000pt" viewBox="0 0 176.000000 134.000000"
 preserveAspectRatio="xMidYMid meet">
<metadata>
Created by potrace 1.10, written by Peter Selinger 2001-2011
</metadata>
<g transform="translate(0.000000,134.000000) scale(0.100000,-0.100000)"
fill="#000000" stroke="none">
<path d="M205 803 c-55 -14 -105 -78 -105 -134 0 -36 31 -88 65 -109 59 -37
155 -16 185 39 11 21 17 21 510 21 l500 0 0 -50 c0 -27 2 -50 5 -50 10 0 205
133 205 140 0 4 -47 39 -105 78 l-105 71 0 -49 0 -50 -497 0 -498 0 -17 29
c-27 48 -91 77 -143 64z"/>
</g>
</svg>
