<?xml version="1.0" standalone="no"?>
<!DOCTYPE svg PUBLIC "-//W3C//DTD SVG 20010904//EN"
 "http://www.w3.org/TR/2001/REC-SVG-20010904/DTD/svg10.dtd">
<svg version="1.0" xmlns="http://www.w3.org/2000/svg"
 width="156.000000pt" height="117.000000pt" viewBox="0 0 156.000000 117.000000"
 preserveAspectRatio="xMidYMid meet">
<metadata>
Created by potrace 1.10, written by Peter Selinger 2001-2011
</metadata>
<g transform="translate(0.000000,117.000000) scale(0.100000,-0.100000)"
fill="#000000" stroke="none">
<path d="M1300 681 l0 -51 -494 0 -495 0 -3 43 -3 42 -120 0 -120 0 0 -120 0
-120 56 -6 c32 -3 86 -3 120 0 63 6 64 6 67 39 l3 32 492 -2 492 -3 5 -47 5
-47 85 55 c125 81 125 82 94 110 -14 13 -28 24 -31 24 -4 0 -40 23 -80 51
l-73 50 0 -50z"/>
</g>
</svg>
