<?xml version="1.0" standalone="no"?>
<!DOCTYPE svg PUBLIC "-//W3C//DTD SVG 20010904//EN"
 "http://www.w3.org/TR/2001/REC-SVG-20010904/DTD/svg10.dtd">
<svg version="1.0" xmlns="http://www.w3.org/2000/svg"
 width="157.000000pt" height="151.000000pt" viewBox="0 0 157.000000 151.000000"
 preserveAspectRatio="xMidYMid meet">
<metadata>
Created by potrace 1.10, written by Peter Selinger 2001-2011
</metadata>
<g transform="translate(0.000000,151.000000) scale(0.100000,-0.100000)"
fill="#000000" stroke="none">
<path d="M795 1208 c-16 -6 -42 -20 -58 -30 -24 -17 -33 -18 -77 -9 -64 14
-140 0 -200 -37 -36 -22 -49 -39 -67 -82 -18 -46 -27 -57 -54 -64 -44 -13 -96
-68 -108 -114 -20 -73 26 -151 110 -186 28 -12 38 -23 43 -47 22 -111 173
-177 301 -132 49 18 51 17 90 -2 84 -42 221 -19 283 47 17 19 33 25 73 26 99
2 165 37 198 105 27 55 26 73 -3 131 -20 40 -22 53 -14 84 27 96 -75 201 -196
202 -24 1 -36 8 -51 33 -31 48 -95 79 -174 83 -36 2 -79 -1 -96 -8z"/>
</g>
</svg>
