<?xml version="1.0" standalone="no"?>
<!DOCTYPE svg PUBLIC "-//W3C//DTD SVG 20010904//EN"
 "http://www.w3.org/TR/2001/REC-SVG-20010904/DTD/svg10.dtd">
<svg version="1.0" xmlns="http://www.w3.org/2000/svg"
 width="137.000000pt" height="114.000000pt" viewBox="0 0 137.000000 114.000000"
 preserveAspectRatio="xMidYMid meet">
<metadata>
Created by potrace 1.10, written by Peter Selinger 2001-2011
</metadata>
<g transform="translate(0.000000,114.000000) scale(0.100000,-0.100000)"
fill="#000000" stroke="none">
<path d="M220 652 c-155 -117 -155 -114 -6 -225 64 -48 124 -87 135 -87 27 0
53 28 49 53 -2 12 -33 44 -73 75 -38 30 -71 60 -73 67 -2 8 29 38 68 67 81 60
96 91 60 120 -12 10 -27 18 -34 18 -6 0 -63 -40 -126 -88z"/>
<path d="M977 722 c-33 -36 -21 -58 64 -123 l82 -62 -29 -21 c-80 -58 -129
-104 -132 -125 -4 -28 14 -51 42 -51 22 0 234 150 250 177 5 9 4 24 -2 37 -10
23 -226 186 -247 186 -6 0 -19 -8 -28 -18z"/>
<path d="M350 540 l0 -50 50 0 50 0 0 50 0 50 -50 0 -50 0 0 -50z"/>
<path d="M550 540 l0 -50 50 0 50 0 0 50 0 50 -50 0 -50 0 0 -50z"/>
<path d="M750 540 l0 -50 50 0 50 0 0 50 0 50 -50 0 -50 0 0 -50z"/>
<path d="M950 540 l0 -50 50 0 50 0 0 50 0 50 -50 0 -50 0 0 -50z"/>
</g>
</svg>
