<?xml version="1.0" standalone="no"?>
<!DOCTYPE svg PUBLIC "-//W3C//DTD SVG 20010904//EN"
 "http://www.w3.org/TR/2001/REC-SVG-20010904/DTD/svg10.dtd">
<svg version="1.0" xmlns="http://www.w3.org/2000/svg"
 width="173.000000pt" height="143.000000pt" viewBox="0 0 173.000000 143.000000"
 preserveAspectRatio="xMidYMid meet">
<metadata>
Created by potrace 1.10, written by Peter Selinger 2001-2011
</metadata>
<g transform="translate(0.000000,143.000000) scale(0.100000,-0.100000)"
fill="#000000" stroke="none">
<path d="M1070 950 c-23 -23 -26 -59 -7 -82 6 -8 54 -46 105 -83 51 -37 90
-71 85 -75 -4 -4 -46 -35 -93 -70 -47 -35 -91 -70 -97 -78 -30 -37 2 -102 49
-102 20 0 279 184 306 218 6 9 12 29 12 44 0 25 -18 42 -147 138 -85 63 -158
110 -170 110 -13 0 -32 -9 -43 -20z"/>
<path d="M270 715 l0 -65 65 0 65 0 0 65 0 65 -65 0 -65 0 0 -65z"/>
<path d="M530 715 l0 -65 65 0 65 0 0 65 0 65 -65 0 -65 0 0 -65z"/>
<path d="M780 715 l0 -65 65 0 65 0 0 65 0 65 -65 0 -65 0 0 -65z"/>
<path d="M1040 715 l0 -65 65 0 65 0 0 65 0 65 -65 0 -65 0 0 -65z"/>
</g>
</svg>
