<?xml version="1.0" standalone="no"?>
<!DOCTYPE svg PUBLIC "-//W3C//DTD SVG 20010904//EN"
 "http://www.w3.org/TR/2001/REC-SVG-20010904/DTD/svg10.dtd">
<svg version="1.0" xmlns="http://www.w3.org/2000/svg"
 width="145.000000pt" height="128.000000pt" viewBox="0 0 145.000000 128.000000"
 preserveAspectRatio="xMidYMid meet">
<metadata>
Created by potrace 1.10, written by Peter Selinger 2001-2011
</metadata>
<g transform="translate(0.000000,128.000000) scale(0.100000,-0.100000)"
fill="#000000" stroke="none">
<path d="M492 1120 c-116 -17 -227 -103 -280 -218 -22 -48 -26 -71 -26 -142 1
-115 33 -188 115 -265 32 -29 68 -56 79 -60 19 -6 20 -15 20 -126 0 -65 3
-119 6 -119 3 0 58 44 122 99 l118 98 165 5 c159 4 168 5 231 35 85 40 137 88
179 165 33 60 34 68 34 168 0 96 -3 110 -28 158 -59 112 -155 182 -277 201
-73 12 -378 13 -458 1z"/>
</g>
</svg>
