<?xml version="1.0" standalone="no"?>
<!DOCTYPE svg PUBLIC "-//W3C//DTD SVG 20010904//EN"
 "http://www.w3.org/TR/2001/REC-SVG-20010904/DTD/svg10.dtd">
<svg version="1.0" xmlns="http://www.w3.org/2000/svg"
 width="186.000000pt" height="151.000000pt" viewBox="0 0 186.000000 151.000000"
 preserveAspectRatio="xMidYMid meet">
<metadata>
Created by potrace 1.10, written by Peter Selinger 2001-2011
</metadata>
<g transform="translate(0.000000,151.000000) scale(0.100000,-0.100000)"
fill="#000000" stroke="none">
<path d="M1217 972 c-12 -13 -17 -37 -17 -80 l0 -62 -490 0 -490 0 0 -55 0
-55 488 -2 487 -3 3 -65 c3 -67 20 -100 52 -100 24 0 266 185 272 208 3 10 1
27 -4 36 -15 26 -246 196 -267 196 -10 0 -25 -8 -34 -18z"/>
</g>
</svg>
