<?xml version="1.0" standalone="no"?>
<!DOCTYPE svg PUBLIC "-//W3C//DTD SVG 20010904//EN"
 "http://www.w3.org/TR/2001/REC-SVG-20010904/DTD/svg10.dtd">
<svg version="1.0" xmlns="http://www.w3.org/2000/svg"
 width="499.000000pt" height="500.000000pt" viewBox="0 0 499.000000 500.000000"
 preserveAspectRatio="xMidYMid meet">

<g transform="translate(0.000000,500.000000) scale(0.100000,-0.100000)"
fill="#000000" stroke="none">
<path d="M2397 4828 c-52 -73 -156 -221 -231 -328 -76 -107 -142 -199 -146
-204 -5 -5 -117 42 -257 107 -136 63 -303 141 -371 172 -68 31 -126 54 -129
51 -4 -4 -23 -185 -43 -404 -20 -218 -39 -403 -44 -410 -4 -6 -24 -12 -44 -12
-40 0 -667 -55 -738 -65 l-42 -6 80 -172 c284 -612 271 -580 251 -595 -10 -7
-163 -115 -341 -239 -177 -124 -321 -227 -320 -228 2 -2 152 -107 333 -235
182 -128 334 -236 338 -239 4 -4 -11 -48 -33 -97 -23 -49 -50 -107 -60 -129
-10 -22 -70 -151 -133 -287 l-115 -247 31 -5 c49 -8 717 -66 755 -66 24 0 35
-6 42 -22 5 -13 23 -195 42 -406 18 -211 35 -388 39 -393 4 -6 156 59 378 161
205 95 375 169 379 165 4 -4 111 -153 237 -332 127 -180 235 -326 240 -326 6
-1 115 148 243 329 164 232 238 328 250 327 9 -1 178 -77 376 -168 197 -91
361 -163 365 -160 3 4 22 186 42 406 20 220 39 403 43 406 4 4 190 24 414 44
224 21 408 38 409 38 2 1 -14 37 -206 450 -78 168 -138 308 -134 312 5 3 154
109 333 234 179 126 329 231 333 235 4 4 -142 112 -325 240 -183 128 -336 236
-341 239 -4 4 56 144 134 312 191 412 208 449 206 450 -1 0 -185 17 -409 38
-224 20 -410 40 -413 43 -10 9 -75 694 -75 783 0 34 -2 37 -22 31 -13 -3 -177
-77 -365 -165 -187 -87 -350 -162 -361 -165 -16 -5 -55 45 -252 324 -128 182
-236 332 -240 335 -5 3 -51 -54 -103 -127z"/>
</g>
</svg>
