<?xml version="1.0" standalone="no"?>
<!DOCTYPE svg PUBLIC "-//W3C//DTD SVG 20010904//EN"
 "http://www.w3.org/TR/2001/REC-SVG-20010904/DTD/svg10.dtd">
<svg version="1.0" xmlns="http://www.w3.org/2000/svg"
 width="424.000000pt" height="420.000000pt" viewBox="0 0 424.000000 420.000000"
 preserveAspectRatio="xMidYMid meet">

<g transform="translate(0.000000,420.000000) scale(0.100000,-0.100000)"
fill="#000000" stroke="none">
<path d="M2011 4117 l-94 -81 -119 63 c-66 35 -120 61 -122 60 -5 -9 -149
-195 -155 -201 -3 -4 -60 9 -126 28 -65 18 -124 34 -130 34 -6 0 -35 -52 -65
-116 l-54 -116 -136 7 -136 7 -29 -121 c-16 -67 -31 -125 -34 -129 -3 -5 -61
-15 -129 -24 -68 -9 -126 -19 -130 -23 -3 -3 -8 -64 -10 -134 l-4 -128 -124
-44 c-68 -24 -124 -48 -124 -54 0 -6 9 -62 21 -124 11 -62 18 -119 16 -125 -3
-7 -53 -41 -111 -77 -58 -35 -106 -67 -106 -70 0 -4 22 -60 49 -125 l49 -119
-97 -91 -96 -91 74 -112 74 -112 -71 -104 c-40 -58 -72 -109 -72 -114 0 -5 42
-48 94 -96 l94 -86 -49 -119 c-27 -65 -49 -122 -49 -127 0 -4 50 -37 110 -73
61 -36 110 -72 110 -80 0 -8 -9 -64 -21 -124 -11 -59 -18 -114 -15 -121 2 -7
22 -19 43 -25 21 -7 75 -26 119 -42 l82 -29 4 -129 c2 -71 6 -131 9 -134 2 -2
62 -13 133 -23 l129 -18 31 -128 30 -129 116 7 c63 4 123 9 132 11 14 4 30
-21 78 -115 33 -67 62 -121 65 -121 3 0 59 16 124 35 65 19 120 35 123 35 3 0
34 -37 68 -82 35 -46 72 -93 83 -105 l20 -22 86 46 c47 25 100 54 116 64 l30
17 100 -84 c54 -46 102 -84 105 -84 4 0 51 38 106 84 l100 83 118 -64 c65 -36
119 -63 120 -61 36 49 160 208 163 208 2 0 60 -16 129 -36 69 -20 127 -34 128
-32 2 1 29 56 59 121 46 96 60 118 74 114 10 -3 70 -8 133 -12 l116 -7 23 99
c13 54 28 112 33 129 l8 31 127 17 c69 9 130 19 135 22 4 3 8 63 8 134 l0 128
121 43 c66 23 123 48 126 55 2 6 -5 63 -16 125 -12 62 -21 118 -21 124 0 5 50
39 111 75 89 53 109 69 106 85 -3 11 -25 68 -50 127 l-45 107 94 86 c52 48 94
91 94 97 0 5 -32 56 -72 114 l-72 104 72 105 c40 57 72 109 72 114 0 5 -40 47
-90 94 -49 47 -90 91 -90 97 0 6 20 60 45 120 25 60 45 113 45 117 0 5 -48 37
-106 73 -59 35 -108 70 -111 76 -2 6 5 61 16 120 12 60 21 116 21 125 0 11
-37 28 -125 59 l-125 45 0 128 c0 151 13 138 -158 158 l-112 12 -9 36 c-6 20
-20 78 -31 130 l-22 93 -137 -7 -136 -7 -54 116 c-30 64 -59 116 -65 116 -7 0
-66 -16 -131 -34 -66 -19 -123 -32 -126 -28 -3 4 -37 48 -74 97 -38 50 -72 94
-76 99 -4 4 -61 -20 -126 -55 l-120 -63 -95 82 c-53 45 -102 82 -109 81 -8 0
-56 -37 -108 -82z"/>
</g>
</svg>
