<?xml version="1.0" standalone="no"?>
<!DOCTYPE svg PUBLIC "-//W3C//DTD SVG 20010904//EN"
 "http://www.w3.org/TR/2001/REC-SVG-20010904/DTD/svg10.dtd">
<svg version="1.0" xmlns="http://www.w3.org/2000/svg"
 width="425.000000pt" height="423.000000pt" viewBox="0 0 425.000000 423.000000"
 preserveAspectRatio="xMidYMid meet">

<g transform="translate(0.000000,423.000000) scale(0.100000,-0.100000)"
fill="#000000" stroke="none">
<path d="M1975 4095 c-77 -63 -146 -114 -152 -114 -7 -1 -90 28 -184 63 l-170
64 -106 -159 -106 -158 -93 4 c-52 3 -136 7 -188 10 l-95 4 -14 -52 c-9 -29
-32 -111 -52 -184 l-37 -131 -132 -37 c-256 -71 -236 -63 -231 -93 2 -15 6
-99 9 -188 l6 -161 -155 -103 c-85 -57 -155 -107 -155 -113 0 -6 27 -83 60
-172 33 -89 60 -167 60 -174 0 -6 -49 -74 -110 -150 -60 -77 -110 -144 -110
-151 0 -6 50 -73 110 -150 60 -76 110 -143 110 -150 0 -6 -27 -84 -60 -172
-33 -89 -60 -167 -60 -172 0 -6 71 -58 157 -114 l156 -104 -7 -91 c-8 -122
-10 -276 -4 -283 3 -2 83 -27 178 -54 95 -27 174 -51 176 -53 2 -2 18 -53 35
-113 16 -60 39 -140 50 -178 l21 -69 189 6 189 7 102 -155 c57 -85 108 -155
113 -155 6 0 81 27 167 60 87 32 164 60 171 62 8 2 78 -48 156 -109 77 -62
146 -113 151 -113 6 0 75 51 153 114 l143 113 174 -64 c95 -35 177 -62 182
-61 4 2 53 71 108 153 l100 150 192 0 191 0 49 175 c27 96 53 177 58 180 5 3
87 27 184 54 l175 49 -4 71 c-3 39 -7 124 -10 188 l-5 118 155 102 c85 57 155
108 155 115 0 7 -27 85 -60 173 -33 88 -60 165 -60 171 0 6 52 75 115 155
l115 144 -115 146 c-63 80 -115 150 -115 154 0 5 27 82 60 172 33 89 60 167
60 174 0 6 -70 57 -155 114 l-155 103 5 116 c3 64 7 148 10 188 l5 72 -33 9
c-17 5 -100 29 -183 52 l-151 43 -48 171 c-26 94 -50 177 -52 183 -4 9 -29 11
-92 8 -47 -3 -131 -7 -187 -10 l-101 -5 -103 155 c-57 85 -108 155 -115 155
-7 0 -85 -27 -174 -60 -89 -33 -167 -60 -172 -60 -5 0 -74 52 -153 115 -80 63
-146 115 -148 114 -2 0 -66 -52 -143 -114z"/>
</g>
</svg>
