<?xml version="1.0" standalone="no"?>
<!DOCTYPE svg PUBLIC "-//W3C//DTD SVG 20010904//EN"
 "http://www.w3.org/TR/2001/REC-SVG-20010904/DTD/svg10.dtd">
<svg version="1.0" xmlns="http://www.w3.org/2000/svg"
 width="421.000000pt" height="425.000000pt" viewBox="0 0 421.000000 425.000000"
 preserveAspectRatio="xMidYMid meet">

<g transform="translate(0.000000,425.000000) scale(0.100000,-0.100000)"
fill="#000000" stroke="none">
<path d="M1944 3980 c-82 -120 -152 -219 -156 -220 -4 0 -104 68 -224 150
-120 83 -220 150 -224 150 -3 0 -34 -118 -68 -262 -34 -144 -63 -263 -65 -264
-2 -2 -117 24 -256 56 -139 33 -258 60 -265 60 -9 0 -2 -74 25 -267 20 -148
32 -270 28 -273 -5 -3 -122 -21 -261 -40 -139 -18 -257 -36 -261 -40 -4 -4 51
-112 122 -241 116 -209 128 -235 113 -247 -9 -6 -114 -67 -234 -134 -120 -68
-218 -126 -218 -129 0 -4 92 -84 205 -179 113 -95 205 -174 205 -176 0 -2 -77
-97 -171 -210 -94 -114 -167 -210 -162 -214 4 -4 118 -44 253 -90 135 -45 247
-84 248 -86 2 -1 -35 -119 -82 -260 -47 -142 -84 -259 -82 -261 1 -2 122 3
269 9 147 6 269 9 272 7 2 -3 10 -125 17 -272 6 -147 15 -267 18 -267 4 0 116
48 249 106 134 58 247 102 251 97 5 -4 50 -102 100 -218 51 -116 99 -223 107
-238 l14 -28 197 191 197 190 192 -192 c106 -106 194 -190 196 -188 2 3 50
111 107 240 56 129 106 239 111 244 4 5 116 -39 254 -99 135 -59 247 -106 249
-104 2 2 9 123 15 269 7 146 15 267 17 269 2 3 124 -1 271 -7 147 -6 268 -10
270 -9 1 2 -36 119 -83 261 -47 141 -85 258 -83 260 2 1 114 40 249 86 135 45
249 86 253 90 5 4 -65 97 -155 206 -90 110 -167 204 -171 210 -4 7 76 81 198
184 113 94 205 175 205 179 0 4 -99 62 -219 130 -121 68 -226 128 -234 134
-13 10 5 48 115 246 71 128 126 237 121 241 -4 4 -120 22 -258 40 -137 18
-255 36 -261 39 -7 4 1 90 26 271 24 174 32 266 26 268 -6 1 -125 -25 -265
-58 -140 -33 -256 -58 -257 -57 -3 3 -124 514 -124 523 0 13 -37 -11 -240
-151 -115 -80 -213 -145 -217 -145 -5 1 -75 100 -156 220 -82 121 -152 220
-156 220 -4 0 -74 -99 -157 -220z"/>
</g>
</svg>
