<?xml version="1.0" standalone="no"?>
<!DOCTYPE svg PUBLIC "-//W3C//DTD SVG 20010904//EN"
 "http://www.w3.org/TR/2001/REC-SVG-20010904/DTD/svg10.dtd">
<svg version="1.0" xmlns="http://www.w3.org/2000/svg"
 width="151.000000pt" height="66.000000pt" viewBox="0 0 151.000000 66.000000"
 preserveAspectRatio="xMidYMid meet">
<metadata>
Created by potrace 1.10, written by Peter Selinger 2001-2011
</metadata>
<g transform="translate(0.000000,66.000000) scale(0.100000,-0.100000)"
fill="#000000" stroke="none">
<path d="M375 571 c-165 -77 -207 -298 -82 -430 18 -18 55 -44 82 -57 50 -24
53 -24 385 -24 315 0 338 2 380 21 96 43 150 123 158 230 4 56 1 75 -20 121
-29 62 -74 109 -134 138 -38 19 -61 20 -385 20 -315 0 -347 -2 -384 -19z"/>
</g>
</svg>
