<?xml version="1.0" standalone="no"?>
<!DOCTYPE svg PUBLIC "-//W3C//DTD SVG 20010904//EN"
 "http://www.w3.org/TR/2001/REC-SVG-20010904/DTD/svg10.dtd">
<svg version="1.0" xmlns="http://www.w3.org/2000/svg"
 width="300.000000pt" height="225.000000pt" viewBox="0 0 300.000000 225.000000"
 preserveAspectRatio="xMidYMid meet">
<metadata>
Created by potrace 1.10, written by Peter Selinger 2001-2011
</metadata>
<g transform="translate(0.000000,225.000000) scale(0.100000,-0.100000)"
fill="#000000" stroke="none">
<path d="M970 1707 c-116 -48 -178 -107 -226 -211 -49 -107 -40 -247 24 -359
17 -30 158 -179 377 -398 l350 -349 356 357 c386 388 393 397 420 532 32 166
-56 333 -220 414 -61 30 -73 32 -166 32 -92 0 -106 -3 -167 -32 -75 -35 -157
-106 -198 -169 l-26 -42 -27 43 c-41 65 -120 133 -195 168 -57 26 -81 32 -157
34 -76 3 -98 0 -145 -20z m292 -55 c59 -27 101 -64 185 -161 39 -45 68 -38
119 29 48 63 99 104 172 138 48 22 71 27 147 27 79 0 97 -3 149 -29 69 -34
135 -95 168 -158 20 -37 23 -57 23 -153 0 -173 5 -166 -391 -564 -289 -290
-334 -332 -350 -323 -11 6 -164 156 -340 334 -238 238 -328 336 -347 374 -104
208 -19 429 196 506 76 27 187 19 269 -20z"/>
</g>
</svg>
